<svg id="visual" viewBox="0 0 960 540" width="960" height="540" xmlns="http://www.w3.org/2000/svg" xmlns:xlink="http://www.w3.org/1999/xlink" version="1.1"><rect x="0" y="0" width="960" height="540" fill="#1a201a"></rect><defs><linearGradient id="grad1_0" x1="43.8%" y1="100%" x2="100%" y2="0%"><stop offset="14.444444444444446%" stop-color="#1ccad8" stop-opacity="1"></stop><stop offset="85.55555555555554%" stop-color="#1ccad8" stop-opacity="1"></stop></linearGradient></defs><defs><linearGradient id="grad1_1" x1="43.8%" y1="100%" x2="100%" y2="0%"><stop offset="14.444444444444446%" stop-color="#1ccad8" stop-opacity="1"></stop><stop offset="85.55555555555554%" stop-color="#2cb0b2" stop-opacity="1"></stop></linearGradient></defs><defs><linearGradient id="grad1_2" x1="43.8%" y1="100%" x2="100%" y2="0%"><stop offset="14.444444444444446%" stop-color="#34968f" stop-opacity="1"></stop><stop offset="85.55555555555554%" stop-color="#2cb0b2" stop-opacity="1"></stop></linearGradient></defs><defs><linearGradient id="grad1_3" x1="43.8%" y1="100%" x2="100%" y2="0%"><stop offset="14.444444444444446%" stop-color="#34968f" stop-opacity="1"></stop><stop offset="85.55555555555554%" stop-color="#377c70" stop-opacity="1"></stop></linearGradient></defs><defs><linearGradient id="grad1_4" x1="43.8%" y1="100%" x2="100%" y2="0%"><stop offset="14.444444444444446%" stop-color="#346355" stop-opacity="1"></stop><stop offset="85.55555555555554%" stop-color="#377c70" stop-opacity="1"></stop></linearGradient></defs><defs><linearGradient id="grad1_5" x1="43.8%" y1="100%" x2="100%" y2="0%"><stop offset="14.444444444444446%" stop-color="#346355" stop-opacity="1"></stop><stop offset="85.55555555555554%" stop-color="#2e4b3e" stop-opacity="1"></stop></linearGradient></defs><defs><linearGradient id="grad1_6" x1="43.8%" y1="100%" x2="100%" y2="0%"><stop offset="14.444444444444446%" stop-color="#25352a" stop-opacity="1"></stop><stop offset="85.55555555555554%" stop-color="#2e4b3e" stop-opacity="1"></stop></linearGradient></defs><defs><linearGradient id="grad1_7" x1="43.8%" y1="100%" x2="100%" y2="0%"><stop offset="14.444444444444446%" stop-color="#25352a" stop-opacity="1"></stop><stop offset="85.55555555555554%" stop-color="#1a201a" stop-opacity="1"></stop></linearGradient></defs><defs><linearGradient id="grad2_0" x1="0%" y1="100%" x2="56.3%" y2="0%"><stop offset="14.444444444444446%" stop-color="#1ccad8" stop-opacity="1"></stop><stop offset="85.55555555555554%" stop-color="#1ccad8" stop-opacity="1"></stop></linearGradient></defs><defs><linearGradient id="grad2_1" x1="0%" y1="100%" x2="56.3%" y2="0%"><stop offset="14.444444444444446%" stop-color="#2cb0b2" stop-opacity="1"></stop><stop offset="85.55555555555554%" stop-color="#1ccad8" stop-opacity="1"></stop></linearGradient></defs><defs><linearGradient id="grad2_2" x1="0%" y1="100%" x2="56.3%" y2="0%"><stop offset="14.444444444444446%" stop-color="#2cb0b2" stop-opacity="1"></stop><stop offset="85.55555555555554%" stop-color="#34968f" stop-opacity="1"></stop></linearGradient></defs><defs><linearGradient id="grad2_3" x1="0%" y1="100%" x2="56.3%" y2="0%"><stop offset="14.444444444444446%" stop-color="#377c70" stop-opacity="1"></stop><stop offset="85.55555555555554%" stop-color="#34968f" stop-opacity="1"></stop></linearGradient></defs><defs><linearGradient id="grad2_4" x1="0%" y1="100%" x2="56.3%" y2="0%"><stop offset="14.444444444444446%" stop-color="#377c70" stop-opacity="1"></stop><stop offset="85.55555555555554%" stop-color="#346355" stop-opacity="1"></stop></linearGradient></defs><defs><linearGradient id="grad2_5" x1="0%" y1="100%" x2="56.3%" y2="0%"><stop offset="14.444444444444446%" stop-color="#2e4b3e" stop-opacity="1"></stop><stop offset="85.55555555555554%" stop-color="#346355" stop-opacity="1"></stop></linearGradient></defs><defs><linearGradient id="grad2_6" x1="0%" y1="100%" x2="56.3%" y2="0%"><stop offset="14.444444444444446%" stop-color="#2e4b3e" stop-opacity="1"></stop><stop offset="85.55555555555554%" stop-color="#25352a" stop-opacity="1"></stop></linearGradient></defs><defs><linearGradient id="grad2_7" x1="0%" y1="100%" x2="56.3%" y2="0%"><stop offset="14.444444444444446%" stop-color="#1a201a" stop-opacity="1"></stop><stop offset="85.55555555555554%" stop-color="#25352a" stop-opacity="1"></stop></linearGradient></defs><g transform="translate(960, 540)"><path d="M-540 0C-421.6 -42.6 -303.3 -85.2 -258.1 -149C-212.9 -212.8 -240.8 -297.9 -210 -363.7C-179.2 -429.6 -89.6 -476.3 0 -523L0 0Z" fill="#202a22"></path><path d="M-472.5 0C-368.9 -37.3 -265.4 -74.5 -225.8 -130.4C-186.3 -186.2 -210.7 -260.6 -183.8 -318.3C-156.8 -375.9 -78.4 -416.8 0 -457.6L0 0Z" fill="#2a4034"></path><path d="M-405 0C-316.2 -31.9 -227.5 -63.9 -193.6 -111.8C-159.7 -159.6 -180.6 -223.4 -157.5 -272.8C-134.4 -322.2 -67.2 -357.2 0 -392.2L0 0Z" fill="#325749"></path><path d="M-337.5 0C-263.5 -26.6 -189.6 -53.2 -161.3 -93.1C-133 -133 -150.5 -186.2 -131.3 -227.3C-112 -268.5 -56 -297.7 0 -326.9L0 0Z" fill="#366f62"></path><path d="M-270 0C-210.8 -21.3 -151.6 -42.6 -129 -74.5C-106.4 -106.4 -120.4 -148.9 -105 -181.9C-89.6 -214.8 -44.8 -238.2 0 -261.5L0 0Z" fill="#36897f"></path><path d="M-202.5 0C-158.1 -16 -113.7 -31.9 -96.8 -55.9C-79.8 -79.8 -90.3 -111.7 -78.8 -136.4C-67.2 -161.1 -33.6 -178.6 0 -196.1L0 0Z" fill="#31a3a0"></path><path d="M-135 0C-105.4 -10.6 -75.8 -21.3 -64.5 -37.3C-53.2 -53.2 -60.2 -74.5 -52.5 -90.9C-44.8 -107.4 -22.4 -119.1 0 -130.7L0 0Z" fill="#25bdc4"></path><path d="M-67.5 0C-52.7 -5.3 -37.9 -10.6 -32.3 -18.6C-26.6 -26.6 -30.1 -37.2 -26.3 -45.5C-22.4 -53.7 -11.2 -59.5 0 -65.4L0 0Z" fill="#1ccad8"></path></g><g transform="translate(0, 0)"><path d="M540 0C444.5 44.5 349.1 89.1 312.6 180.5C276.2 271.9 298.8 410.2 256.5 444.3C214.2 478.3 107.1 408.2 0 338L0 0Z" fill="#202a22"></path><path d="M472.5 0C389 39 305.4 77.9 273.6 157.9C241.7 237.9 261.4 358.9 224.4 388.7C187.5 418.5 93.7 357.1 0 295.8L0 0Z" fill="#2a4034"></path><path d="M405 0C333.4 33.4 261.8 66.8 234.5 135.4C207.1 203.9 224.1 307.7 192.4 333.2C160.7 358.8 80.3 306.1 0 253.5L0 0Z" fill="#325749"></path><path d="M337.5 0C277.8 27.8 218.2 55.7 195.4 112.8C172.6 169.9 186.7 256.4 160.3 277.7C133.9 299 66.9 255.1 0 211.3L0 0Z" fill="#366f62"></path><path d="M270 0C222.3 22.3 174.5 44.5 156.3 90.2C138.1 136 149.4 205.1 128.3 222.1C107.1 239.2 53.6 204.1 0 169L0 0Z" fill="#36897f"></path><path d="M202.5 0C166.7 16.7 130.9 33.4 117.2 67.7C103.6 102 112 153.8 96.2 166.6C80.3 179.4 40.2 153.1 0 126.8L0 0Z" fill="#31a3a0"></path><path d="M135 0C111.1 11.1 87.3 22.3 78.2 45.1C69 68 74.7 102.6 64.1 111.1C53.6 119.6 26.8 102 0 84.5L0 0Z" fill="#25bdc4"></path><path d="M67.5 0C55.6 5.6 43.6 11.1 39.1 22.6C34.5 34 37.3 51.3 32.1 55.5C26.8 59.8 13.4 51 0 42.3L0 0Z" fill="#1ccad8"></path></g></svg>