<svg id="visual" viewBox="0 0 960 540" width="960" height="540" xmlns="http://www.w3.org/2000/svg" xmlns:xlink="http://www.w3.org/1999/xlink" version="1.1"><rect x="0" y="0" width="960" height="540" fill="#1a201a"></rect><path d="M0 427L22.8 423.3C45.7 419.7 91.3 412.3 137 408C182.7 403.7 228.3 402.3 274 402C319.7 401.7 365.3 402.3 411.2 408.5C457 414.7 503 426.3 548.8 431.8C594.7 437.3 640.3 436.7 686 433C731.7 429.3 777.3 422.7 823 422.8C868.7 423 914.3 430 937.2 433.5L960 437L960 541L937.2 541C914.3 541 868.7 541 823 541C777.3 541 731.7 541 686 541C640.3 541 594.7 541 548.8 541C503 541 457 541 411.2 541C365.3 541 319.7 541 274 541C228.3 541 182.7 541 137 541C91.3 541 45.7 541 22.8 541L0 541Z" fill="#0cf574"></path><path d="M0 427L22.8 432.5C45.7 438 91.3 449 137 450.8C182.7 452.7 228.3 445.3 274 446.7C319.7 448 365.3 458 411.2 460.8C457 463.7 503 459.3 548.8 461.2C594.7 463 640.3 471 686 469.3C731.7 467.7 777.3 456.3 823 453.2C868.7 450 914.3 455 937.2 457.5L960 460L960 541L937.2 541C914.3 541 868.7 541 823 541C777.3 541 731.7 541 686 541C640.3 541 594.7 541 548.8 541C503 541 457 541 411.2 541C365.3 541 319.7 541 274 541C228.3 541 182.7 541 137 541C91.3 541 45.7 541 22.8 541L0 541Z" fill="#00e3bf"></path><path d="M0 481L22.8 483.8C45.7 486.7 91.3 492.3 137 496.5C182.7 500.7 228.3 503.3 274 501.5C319.7 499.7 365.3 493.3 411.2 487.2C457 481 503 475 548.8 473.5C594.7 472 640.3 475 686 480C731.7 485 777.3 492 823 490.5C868.7 489 914.3 479 937.2 474L960 469L960 541L937.2 541C914.3 541 868.7 541 823 541C777.3 541 731.7 541 686 541C640.3 541 594.7 541 548.8 541C503 541 457 541 411.2 541C365.3 541 319.7 541 274 541C228.3 541 182.7 541 137 541C91.3 541 45.7 541 22.8 541L0 541Z" fill="#1ccad8"></path></svg>