<svg id="visual" viewBox="0 0 800 200" width="800" height="200" xmlns="http://www.w3.org/2000/svg" xmlns:xlink="http://www.w3.org/1999/xlink" version="1.1"><rect x="0" y="0" width="800" height="200" fill="#1a201a"></rect><path d="M0 173L19 173.5C38 174 76 175 114.2 176C152.3 177 190.7 178 228.8 177C267 176 305 173 343 171C381 169 419 168 457 168.5C495 169 533 171 571.2 171.5C609.3 172 647.7 171 685.8 170.3C724 169.7 762 169.3 781 169.2L800 169L800 201L781 201C762 201 724 201 685.8 201C647.7 201 609.3 201 571.2 201C533 201 495 201 457 201C419 201 381 201 343 201C305 201 267 201 228.8 201C190.7 201 152.3 201 114.2 201C76 201 38 201 19 201L0 201Z" fill="#0cf574"></path><path d="M0 183L19 181C38 179 76 175 114.2 174.3C152.3 173.7 190.7 176.3 228.8 178.3C267 180.3 305 181.7 343 180.7C381 179.7 419 176.3 457 176.3C495 176.3 533 179.7 571.2 179.3C609.3 179 647.7 175 685.8 174.3C724 173.7 762 176.3 781 177.7L800 179L800 201L781 201C762 201 724 201 685.8 201C647.7 201 609.3 201 571.2 201C533 201 495 201 457 201C419 201 381 201 343 201C305 201 267 201 228.8 201C190.7 201 152.3 201 114.2 201C76 201 38 201 19 201L0 201Z" fill="#00eda1"></path><path d="M0 182L19 182.3C38 182.7 76 183.3 114.2 182.7C152.3 182 190.7 180 228.8 180C267 180 305 182 343 182C381 182 419 180 457 180.5C495 181 533 184 571.2 184.2C609.3 184.3 647.7 181.7 685.8 180.7C724 179.7 762 180.3 781 180.7L800 181L800 201L781 201C762 201 724 201 685.8 201C647.7 201 609.3 201 571.2 201C533 201 495 201 457 201C419 201 381 201 343 201C305 201 267 201 228.8 201C190.7 201 152.3 201 114.2 201C76 201 38 201 19 201L0 201Z" fill="#00e3bf"></path><path d="M0 183L19 183.3C38 183.7 76 184.3 114.2 184.5C152.3 184.7 190.7 184.3 228.8 185C267 185.7 305 187.3 343 188.3C381 189.3 419 189.7 457 189.8C495 190 533 190 571.2 190C609.3 190 647.7 190 685.8 190C724 190 762 190 781 190L800 190L800 201L781 201C762 201 724 201 685.8 201C647.7 201 609.3 201 571.2 201C533 201 495 201 457 201C419 201 381 201 343 201C305 201 267 201 228.8 201C190.7 201 152.3 201 114.2 201C76 201 38 201 19 201L0 201Z" fill="#00d7d0"></path><path d="M0 196L19 196C38 196 76 196 114.2 195.3C152.3 194.7 190.7 193.3 228.8 192.3C267 191.3 305 190.7 343 191C381 191.3 419 192.7 457 192.5C495 192.3 533 190.7 571.2 190.5C609.3 190.3 647.7 191.7 685.8 192.8C724 194 762 195 781 195.5L800 196L800 201L781 201C762 201 724 201 685.8 201C647.7 201 609.3 201 571.2 201C533 201 495 201 457 201C419 201 381 201 343 201C305 201 267 201 228.8 201C190.7 201 152.3 201 114.2 201C76 201 38 201 19 201L0 201Z" fill="#1ccad8"></path></svg>