<svg id="visual" viewBox="0 0 960 466" width="960" height="466" xmlns="http://www.w3.org/2000/svg" xmlns:xlink="http://www.w3.org/1999/xlink" version="1.1"><path d="M0 173L16 163.8C32 154.7 64 136.3 96 115.5C128 94.7 160 71.3 192 52.7C224 34 256 20 288 21.5C320 23 352 40 384 59.3C416 78.7 448 100.3 480 117.3C512 134.3 544 146.7 576 140.5C608 134.3 640 109.7 672 96.5C704 83.3 736 81.7 768 71.5C800 61.3 832 42.7 864 34.2C896 25.7 928 27.3 944 28.2L960 29L960 0L944 0C928 0 896 0 864 0C832 0 800 0 768 0C736 0 704 0 672 0C640 0 608 0 576 0C544 0 512 0 480 0C448 0 416 0 384 0C352 0 320 0 288 0C256 0 224 0 192 0C160 0 128 0 96 0C64 0 32 0 16 0L0 0Z" fill="#1ccad8"></path><path d="M0 192L16 185.8C32 179.7 64 167.3 96 154.2C128 141 160 127 192 109.8C224 92.7 256 72.3 288 77C320 81.7 352 111.3 384 146.3C416 181.3 448 221.7 480 238.7C512 255.7 544 249.3 576 225.3C608 201.3 640 159.7 672 138.8C704 118 736 118 768 111C800 104 832 90 864 78.3C896 66.7 928 57.3 944 52.7L960 48L960 27L944 26.2C928 25.3 896 23.7 864 32.2C832 40.7 800 59.3 768 69.5C736 79.7 704 81.3 672 94.5C640 107.7 608 132.3 576 138.5C544 144.7 512 132.3 480 115.3C448 98.3 416 76.7 384 57.3C352 38 320 21 288 19.5C256 18 224 32 192 50.7C160 69.3 128 92.7 96 113.5C64 134.3 32 152.7 16 161.8L0 171Z" fill="#00d6d1"></path><path d="M0 206L16 198.2C32 190.3 64 174.7 96 159.2C128 143.7 160 128.3 192 116C224 103.7 256 94.3 288 101.3C320 108.3 352 131.7 384 162C416 192.3 448 229.7 480 248.3C512 267 544 267 576 245.2C608 223.3 640 179.7 672 158.7C704 137.7 736 139.3 768 133.2C800 127 832 113 864 99.8C896 86.7 928 74.3 944 68.2L960 62L960 46L944 50.7C928 55.3 896 64.7 864 76.3C832 88 800 102 768 109C736 116 704 116 672 136.8C640 157.7 608 199.3 576 223.3C544 247.3 512 253.7 480 236.7C448 219.7 416 179.3 384 144.3C352 109.3 320 79.7 288 75C256 70.3 224 90.7 192 107.8C160 125 128 139 96 152.2C64 165.3 32 177.7 16 183.8L0 190Z" fill="#00e1c3"></path><path d="M0 215L16 213.5C32 212 64 209 96 196.7C128 184.3 160 162.7 192 146.3C224 130 256 119 288 125.2C320 131.3 352 154.7 384 187.3C416 220 448 262 480 278.3C512 294.7 544 285.3 576 262.8C608 240.3 640 204.7 672 183.7C704 162.7 736 156.3 768 147C800 137.7 832 125.3 864 117.7C896 110 928 107 944 105.5L960 104L960 60L944 66.2C928 72.3 896 84.7 864 97.8C832 111 800 125 768 131.2C736 137.3 704 135.7 672 156.7C640 177.7 608 221.3 576 243.2C544 265 512 265 480 246.3C448 227.7 416 190.3 384 160C352 129.7 320 106.3 288 99.3C256 92.3 224 101.7 192 114C160 126.3 128 141.7 96 157.2C64 172.7 32 188.3 16 196.2L0 204Z" fill="#00ebab"></path><path d="M0 253L16 253C32 253 64 253 96 239C128 225 160 197 192 173.7C224 150.3 256 131.7 288 139.3C320 147 352 181 384 212.8C416 244.7 448 274.3 480 285.3C512 296.3 544 288.7 576 280.2C608 271.7 640 262.3 672 246.7C704 231 736 209 768 188.7C800 168.3 832 149.7 864 149C896 148.3 928 165.7 944 174.3L960 183L960 102L944 103.5C928 105 896 108 864 115.7C832 123.3 800 135.7 768 145C736 154.3 704 160.7 672 181.7C640 202.7 608 238.3 576 260.8C544 283.3 512 292.7 480 276.3C448 260 416 218 384 185.3C352 152.7 320 129.3 288 123.2C256 117 224 128 192 144.3C160 160.7 128 182.3 96 194.7C64 207 32 210 16 211.5L0 213Z" fill="#00f286"></path><path d="M0 271L16 271C32 271 64 271 96 261C128 251 160 231 192 207C224 183 256 155 288 155.7C320 156.3 352 185.7 384 215.2C416 244.7 448 274.3 480 290.7C512 307 544 310 576 308.5C608 307 640 301 672 281.7C704 262.3 736 229.7 768 207C800 184.3 832 171.7 864 173.2C896 174.7 928 190.3 944 198.2L960 206L960 181L944 172.3C928 163.7 896 146.3 864 147C832 147.7 800 166.3 768 186.7C736 207 704 229 672 244.7C640 260.3 608 269.7 576 278.2C544 286.7 512 294.3 480 283.3C448 272.3 416 242.7 384 210.8C352 179 320 145 288 137.3C256 129.7 224 148.3 192 171.7C160 195 128 223 96 237C64 251 32 251 16 251L0 251Z" fill="#0cf574"></path><path d="M0 285L16 282.7C32 280.3 64 275.7 96 264.8C128 254 160 237 192 213C224 189 256 158 288 161.2C320 164.3 352 201.7 384 232.7C416 263.7 448 288.3 480 303C512 317.7 544 322.3 576 324.7C608 327 640 327 672 305.3C704 283.7 736 240.3 768 215.5C800 190.7 832 184.3 864 188.2C896 192 928 206 944 213L960 220L960 204L944 196.2C928 188.3 896 172.7 864 171.2C832 169.7 800 182.3 768 205C736 227.7 704 260.3 672 279.7C640 299 608 305 576 306.5C544 308 512 305 480 288.7C448 272.3 416 242.7 384 213.2C352 183.7 320 154.3 288 153.7C256 153 224 181 192 205C160 229 128 249 96 259C64 269 32 269 16 269L0 269Z" fill="#0cf574"></path><path d="M0 318L16 317.2C32 316.3 64 314.7 96 298.3C128 282 160 251 192 224.7C224 198.3 256 176.7 288 183.7C320 190.7 352 226.3 384 255.8C416 285.3 448 308.7 480 321.8C512 335 544 338 576 342.7C608 347.3 640 353.7 672 339.7C704 325.7 736 291.3 768 269.5C800 247.7 832 238.3 864 235.3C896 232.3 928 235.7 944 237.3L960 239L960 218L944 211C928 204 896 190 864 186.2C832 182.3 800 188.7 768 213.5C736 238.3 704 281.7 672 303.3C640 325 608 325 576 322.7C544 320.3 512 315.7 480 301C448 286.3 416 261.7 384 230.7C352 199.7 320 162.3 288 159.2C256 156 224 187 192 211C160 235 128 252 96 262.8C64 273.7 32 278.3 16 280.7L0 283Z" fill="#00f286"></path><path d="M0 374L16 377C32 380 64 386 96 389.8C128 393.7 160 395.3 192 390.7C224 386 256 375 288 367.3C320 359.7 352 355.3 384 357.7C416 360 448 369 480 372C512 375 544 372 576 382.2C608 392.3 640 415.7 672 410.3C704 405 736 371 768 361.7C800 352.3 832 367.7 864 374.5C896 381.3 928 379.7 944 378.8L960 378L960 237L944 235.3C928 233.7 896 230.3 864 233.3C832 236.3 800 245.7 768 267.5C736 289.3 704 323.7 672 337.7C640 351.7 608 345.3 576 340.7C544 336 512 333 480 319.8C448 306.7 416 283.3 384 253.8C352 224.3 320 188.7 288 181.7C256 174.7 224 196.3 192 222.7C160 249 128 280 96 296.3C64 312.7 32 314.3 16 315.2L0 316Z" fill="#00ebab"></path><path d="M0 416L16 416.7C32 417.3 64 418.7 96 419.3C128 420 160 420 192 413.8C224 407.7 256 395.3 288 390.7C320 386 352 389 384 395.2C416 401.3 448 410.7 480 408.3C512 406 544 392 576 396.7C608 401.3 640 424.7 672 422.3C704 420 736 392 768 385C800 378 832 392 864 396.7C896 401.3 928 396.7 944 394.3L960 392L960 376L944 376.8C928 377.7 896 379.3 864 372.5C832 365.7 800 350.3 768 359.7C736 369 704 403 672 408.3C640 413.7 608 390.3 576 380.2C544 370 512 373 480 370C448 367 416 358 384 355.7C352 353.3 320 357.7 288 365.3C256 373 224 384 192 388.7C160 393.3 128 391.7 96 387.8C64 384 32 378 16 375L0 372Z" fill="#00e1c3"></path><path d="M0 462L16 455C32 448 64 434 96 432.5C128 431 160 442 192 439.7C224 437.3 256 421.7 288 413.2C320 404.7 352 403.3 384 413.5C416 423.7 448 445.3 480 446C512 446.7 544 426.3 576 424.8C608 423.3 640 440.7 672 442.3C704 444 736 430 768 423.7C800 417.3 832 418.7 864 415.5C896 412.3 928 404.7 944 400.8L960 397L960 390L944 392.3C928 394.7 896 399.3 864 394.7C832 390 800 376 768 383C736 390 704 418 672 420.3C640 422.7 608 399.3 576 394.7C544 390 512 404 480 406.3C448 408.7 416 399.3 384 393.2C352 387 320 384 288 388.7C256 393.3 224 405.7 192 411.8C160 418 128 418 96 417.3C64 416.7 32 415.3 16 414.7L0 414Z" fill="#00d6d1"></path><path d="M0 467L16 467C32 467 64 467 96 467C128 467 160 467 192 467C224 467 256 467 288 467C320 467 352 467 384 467C416 467 448 467 480 467C512 467 544 467 576 467C608 467 640 467 672 467C704 467 736 467 768 467C800 467 832 467 864 467C896 467 928 467 944 467L960 467L960 395L944 398.8C928 402.7 896 410.3 864 413.5C832 416.7 800 415.3 768 421.7C736 428 704 442 672 440.3C640 438.7 608 421.3 576 422.8C544 424.3 512 444.7 480 444C448 443.3 416 421.7 384 411.5C352 401.3 320 402.7 288 411.2C256 419.7 224 435.3 192 437.7C160 440 128 429 96 430.5C64 432 32 446 16 453L0 460Z" fill="#1ccad8"></path></svg>