<svg id="visual" viewBox="0 0 1904 1854" width="1904" height="1854" xmlns="http://www.w3.org/2000/svg" xmlns:xlink="http://www.w3.org/1999/xlink" version="1.1"><path d="M0 94L39.7 78.3C79.3 62.7 158.7 31.3 238 28.2C317.3 25 396.7 50 476 71.8C555.3 93.7 634.7 112.3 714 106.2C793.3 100 872.7 69 952 50.5C1031.3 32 1110.7 26 1190 32.2C1269.3 38.3 1348.7 56.7 1428 75.2C1507.3 93.7 1586.7 112.3 1666 124.7C1745.3 137 1824.7 143 1864.3 146L1904 149L1904 0L1864.3 0C1824.7 0 1745.3 0 1666 0C1586.7 0 1507.3 0 1428 0C1348.7 0 1269.3 0 1190 0C1110.7 0 1031.3 0 952 0C872.7 0 793.3 0 714 0C634.7 0 555.3 0 476 0C396.7 0 317.3 0 238 0C158.7 0 79.3 0 39.7 0L0 0Z" fill="#1ccad8"></path><path d="M0 149L39.7 136.7C79.3 124.3 158.7 99.7 238 102.8C317.3 106 396.7 137 476 161.7C555.3 186.3 634.7 204.7 714 192.3C793.3 180 872.7 137 952 140.2C1031.3 143.3 1110.7 192.7 1190 201.8C1269.3 211 1348.7 180 1428 164.5C1507.3 149 1586.7 149 1666 176.8C1745.3 204.7 1824.7 260.3 1864.3 288.2L1904 316L1904 147L1864.3 144C1824.7 141 1745.3 135 1666 122.7C1586.7 110.3 1507.3 91.7 1428 73.2C1348.7 54.7 1269.3 36.3 1190 30.2C1110.7 24 1031.3 30 952 48.5C872.7 67 793.3 98 714 104.2C634.7 110.3 555.3 91.7 476 70.2C396.7 48.7 317.3 24.3 238 27.5C158.7 30.7 79.3 61.3 39.7 76.7L0 92Z" fill="#00d6d1"></path><path d="M0 298L39.7 322.7C79.3 347.3 158.7 396.7 238 492.3C317.3 588 396.7 730 476 723.8C555.3 717.7 634.7 563.3 714 510.8C793.3 458.3 872.7 507.7 952 535.5C1031.3 563.3 1110.7 569.7 1190 613C1269.3 656.3 1348.7 736.7 1428 826.2C1507.3 915.7 1586.7 1014.3 1666 949.3C1745.3 884.3 1824.7 655.7 1864.3 541.3L1904 427L1904 314L1864.3 286.2C1824.7 258.3 1745.3 202.7 1666 174.8C1586.7 147 1507.3 147 1428 162.5C1348.7 178 1269.3 209 1190 199.8C1110.7 190.7 1031.3 141.3 952 138.2C872.7 135 793.3 178 714 190.3C634.7 202.7 555.3 184.3 476 159.7C396.7 135 317.3 104 238 100.8C158.7 97.7 79.3 122.3 39.7 134.7L0 147Z" fill="#00e1c3"></path><path d="M0 446L39.7 464.5C79.3 483 158.7 520 238 609.7C317.3 699.3 396.7 841.7 476 832.5C555.3 823.3 634.7 662.7 714 616.3C793.3 570 872.7 638 952 675C1031.3 712 1110.7 718 1190 736.5C1269.3 755 1348.7 786 1428 872.5C1507.3 959 1586.7 1101 1666 1045.3C1745.3 989.7 1824.7 736.3 1864.3 609.7L1904 483L1904 425L1864.3 539.3C1824.7 653.7 1745.3 882.3 1666 947.3C1586.7 1012.3 1507.3 913.7 1428 824.2C1348.7 734.7 1269.3 654.3 1190 611C1110.7 567.7 1031.3 561.3 952 533.5C872.7 505.7 793.3 456.3 714 508.8C634.7 561.3 555.3 715.7 476 721.8C396.7 728 317.3 586 238 490.3C158.7 394.7 79.3 345.3 39.7 320.7L0 296Z" fill="#00ebab"></path><path d="M0 446L39.7 467.7C79.3 489.3 158.7 532.7 238 628.5C317.3 724.3 396.7 872.7 476 875.7C555.3 878.7 634.7 736.3 714 690C793.3 643.7 872.7 693.3 952 715C1031.3 736.7 1110.7 730.3 1190 767.3C1269.3 804.3 1348.7 884.7 1428 989.7C1507.3 1094.7 1586.7 1224.3 1666 1171.8C1745.3 1119.3 1824.7 884.7 1864.3 767.3L1904 650L1904 481L1864.3 607.7C1824.7 734.3 1745.3 987.7 1666 1043.3C1586.7 1099 1507.3 957 1428 870.5C1348.7 784 1269.3 753 1190 734.5C1110.7 716 1031.3 710 952 673C872.7 636 793.3 568 714 614.3C634.7 660.7 555.3 821.3 476 830.5C396.7 839.7 317.3 697.3 238 607.7C158.7 518 79.3 481 39.7 462.5L0 444Z" fill="#00f286"></path><path d="M0 539L39.7 563.7C79.3 588.3 158.7 637.7 238 730.3C317.3 823 396.7 959 476 971.3C555.3 983.7 634.7 872.3 714 844.5C793.3 816.7 872.7 872.3 952 900.2C1031.3 928 1110.7 928 1190 968.2C1269.3 1008.3 1348.7 1088.7 1428 1181.3C1507.3 1274 1586.7 1379 1666 1295.5C1745.3 1212 1824.7 940 1864.3 804L1904 668L1904 648L1864.3 765.3C1824.7 882.7 1745.3 1117.3 1666 1169.8C1586.7 1222.3 1507.3 1092.7 1428 987.7C1348.7 882.7 1269.3 802.3 1190 765.3C1110.7 728.3 1031.3 734.7 952 713C872.7 691.3 793.3 641.7 714 688C634.7 734.3 555.3 876.7 476 873.7C396.7 870.7 317.3 722.3 238 626.5C158.7 530.7 79.3 487.3 39.7 465.7L0 444Z" fill="#0cf574"></path><path d="M0 650L39.7 665.5C79.3 681 158.7 712 238 814C317.3 916 396.7 1089 476 1104.3C555.3 1119.7 634.7 977.3 714 968C793.3 958.7 872.7 1082.3 952 1104C1031.3 1125.7 1110.7 1045.3 1190 1070C1269.3 1094.7 1348.7 1224.3 1428 1323.2C1507.3 1422 1586.7 1490 1666 1412.8C1745.3 1335.7 1824.7 1113.3 1864.3 1002.2L1904 891L1904 666L1864.3 802C1824.7 938 1745.3 1210 1666 1293.5C1586.7 1377 1507.3 1272 1428 1179.3C1348.7 1086.7 1269.3 1006.3 1190 966.2C1110.7 926 1031.3 926 952 898.2C872.7 870.3 793.3 814.7 714 842.5C634.7 870.3 555.3 981.7 476 969.3C396.7 957 317.3 821 238 728.3C158.7 635.7 79.3 586.3 39.7 561.7L0 537Z" fill="#0cf574"></path><path d="M0 650L39.7 684C79.3 718 158.7 786 238 897.2C317.3 1008.3 396.7 1162.7 476 1165.7C555.3 1168.7 634.7 1020.3 714 1014.2C793.3 1008 872.7 1144 952 1178C1031.3 1212 1110.7 1144 1190 1171.8C1269.3 1199.7 1348.7 1323.3 1428 1406.8C1507.3 1490.3 1586.7 1533.7 1666 1447.2C1745.3 1360.7 1824.7 1144.3 1864.3 1036.2L1904 928L1904 889L1864.3 1000.2C1824.7 1111.3 1745.3 1333.7 1666 1410.8C1586.7 1488 1507.3 1420 1428 1321.2C1348.7 1222.3 1269.3 1092.7 1190 1068C1110.7 1043.3 1031.3 1123.7 952 1102C872.7 1080.3 793.3 956.7 714 966C634.7 975.3 555.3 1117.7 476 1102.3C396.7 1087 317.3 914 238 812C158.7 710 79.3 679 39.7 663.5L0 648Z" fill="#00f286"></path><path d="M0 706L39.7 755.3C79.3 804.7 158.7 903.3 238 1045.3C317.3 1187.3 396.7 1372.7 476 1369.7C555.3 1366.7 634.7 1175.3 714 1153.8C793.3 1132.3 872.7 1280.7 952 1330C1031.3 1379.3 1110.7 1329.7 1190 1335.8C1269.3 1342 1348.7 1404 1428 1475.2C1507.3 1546.3 1586.7 1626.7 1666 1564.8C1745.3 1503 1824.7 1299 1864.3 1197L1904 1095L1904 926L1864.3 1034.2C1824.7 1142.3 1745.3 1358.7 1666 1445.2C1586.7 1531.7 1507.3 1488.3 1428 1404.8C1348.7 1321.3 1269.3 1197.7 1190 1169.8C1110.7 1142 1031.3 1210 952 1176C872.7 1142 793.3 1006 714 1012.2C634.7 1018.3 555.3 1166.7 476 1163.7C396.7 1160.7 317.3 1006.3 238 895.2C158.7 784 79.3 716 39.7 682L0 648Z" fill="#00ebab"></path><path d="M0 854L39.7 903.3C79.3 952.7 158.7 1051.3 238 1190.3C317.3 1329.3 396.7 1508.7 476 1502.5C555.3 1496.3 634.7 1304.7 714 1267.7C793.3 1230.7 872.7 1348.3 952 1379.3C1031.3 1410.3 1110.7 1354.7 1190 1373.2C1269.3 1391.7 1348.7 1484.3 1428 1561.5C1507.3 1638.7 1586.7 1700.3 1666 1644.7C1745.3 1589 1824.7 1416 1864.3 1329.5L1904 1243L1904 1093L1864.3 1195C1824.7 1297 1745.3 1501 1666 1562.8C1586.7 1624.7 1507.3 1544.3 1428 1473.2C1348.7 1402 1269.3 1340 1190 1333.8C1110.7 1327.7 1031.3 1377.3 952 1328C872.7 1278.7 793.3 1130.3 714 1151.8C634.7 1173.3 555.3 1364.7 476 1367.7C396.7 1370.7 317.3 1185.3 238 1043.3C158.7 901.3 79.3 802.7 39.7 753.3L0 704Z" fill="#00e1c3"></path><path d="M0 1410L39.7 1422.3C79.3 1434.7 158.7 1459.3 238 1533.5C317.3 1607.7 396.7 1731.3 476 1731.3C555.3 1731.3 634.7 1607.7 714 1558.2C793.3 1508.7 872.7 1533.3 952 1564.3C1031.3 1595.3 1110.7 1632.7 1190 1657.5C1269.3 1682.3 1348.7 1694.7 1428 1719.3C1507.3 1744 1586.7 1781 1666 1790.2C1745.3 1799.3 1824.7 1780.7 1864.3 1771.3L1904 1762L1904 1241L1864.3 1327.5C1824.7 1414 1745.3 1587 1666 1642.7C1586.7 1698.3 1507.3 1636.7 1428 1559.5C1348.7 1482.3 1269.3 1389.7 1190 1371.2C1110.7 1352.7 1031.3 1408.3 952 1377.3C872.7 1346.3 793.3 1228.7 714 1265.7C634.7 1302.7 555.3 1494.3 476 1500.5C396.7 1506.7 317.3 1327.3 238 1188.3C158.7 1049.3 79.3 950.7 39.7 901.3L0 852Z" fill="#00d6d1"></path><path d="M0 1855L39.7 1855C79.3 1855 158.7 1855 238 1855C317.3 1855 396.7 1855 476 1855C555.3 1855 634.7 1855 714 1855C793.3 1855 872.7 1855 952 1855C1031.3 1855 1110.7 1855 1190 1855C1269.3 1855 1348.7 1855 1428 1855C1507.3 1855 1586.7 1855 1666 1855C1745.3 1855 1824.7 1855 1864.3 1855L1904 1855L1904 1760L1864.3 1769.3C1824.7 1778.7 1745.3 1797.3 1666 1788.2C1586.7 1779 1507.3 1742 1428 1717.3C1348.7 1692.7 1269.3 1680.3 1190 1655.5C1110.7 1630.7 1031.3 1593.3 952 1562.3C872.7 1531.3 793.3 1506.7 714 1556.2C634.7 1605.7 555.3 1729.3 476 1729.3C396.7 1729.3 317.3 1605.7 238 1531.5C158.7 1457.3 79.3 1432.7 39.7 1420.3L0 1408Z" fill="#1ccad8"></path></svg>