<svg id="visual" viewBox="0 0 1908 2249" width="1908" height="2249" xmlns="http://www.w3.org/2000/svg" xmlns:xlink="http://www.w3.org/1999/xlink" version="1.1"><path d="M0 91L159 139.7C318 188.3 636 285.7 954 353.2C1272 420.7 1590 458.3 1749 477.2L1908 496L1908 0L1749 0C1590 0 1272 0 954 0C636 0 318 0 159 0L0 0Z" fill="#1ccad8"></path><path d="M0 406L159 436C318 466 636 526 954 559.7C1272 593.3 1590 600.7 1749 604.3L1908 608L1908 494L1749 475.2C1590 456.3 1272 418.7 954 351.2C636 283.7 318 186.3 159 137.7L0 89Z" fill="#00d1d5"></path><path d="M0 1148L159 1114.3C318 1080.7 636 1013.3 954 1005.8C1272 998.3 1590 1050.7 1749 1076.8L1908 1103L1908 606L1749 602.3C1590 598.7 1272 591.3 954 557.7C636 524 318 464 159 434L0 404Z" fill="#00d7d0"></path><path d="M0 1350L159 1342.5C318 1335 636 1320 954 1361.3C1272 1402.7 1590 1500.3 1749 1549.2L1908 1598L1908 1101L1749 1074.8C1590 1048.7 1272 996.3 954 1003.8C636 1011.3 318 1078.7 159 1112.3L0 1146Z" fill="#00ddc9"></path><path d="M0 1395L159 1413.8C318 1432.7 636 1470.3 954 1545.3C1272 1620.3 1590 1732.7 1749 1788.8L1908 1845L1908 1596L1749 1547.2C1590 1498.3 1272 1400.7 954 1359.3C636 1318 318 1333 159 1340.5L0 1348Z" fill="#00e3bf"></path><path d="M0 1710L159 1721.3C318 1732.7 636 1755.3 954 1792.8C1272 1830.3 1590 1882.7 1749 1908.8L1908 1935L1908 1843L1749 1786.8C1590 1730.7 1272 1618.3 954 1543.3C636 1468.3 318 1430.7 159 1411.8L0 1393Z" fill="#00e8b2"></path><path d="M0 1823L159 1845.5C318 1868 636 1913 954 1946.7C1272 1980.3 1590 2002.7 1749 2013.8L1908 2025L1908 1933L1749 1906.8C1590 1880.7 1272 1828.3 954 1790.8C636 1753.3 318 1730.7 159 1719.3L0 1708Z" fill="#00eda1"></path><path d="M0 2070L159 2096.3C318 2122.7 636 2175.3 954 2179.2C1272 2183 1590 2138 1749 2115.5L1908 2093L1908 2023L1749 2011.8C1590 2000.7 1272 1978.3 954 1944.7C636 1911 318 1866 159 1843.5L0 1821Z" fill="#00f18d"></path><path d="M0 2250L159 2250C318 2250 636 2250 954 2250C1272 2250 1590 2250 1749 2250L1908 2250L1908 2091L1749 2113.5C1590 2136 1272 2181 954 2177.2C636 2173.3 318 2120.7 159 2094.3L0 2068Z" fill="#0cf574"></path></svg>